<?xml version="1.0" encoding="utf-8"?>
<!-- Generator: Adobe Illustrator 19.1.0, SVG Export Plug-In . SVG Version: 6.00 Build 0)  -->
<!DOCTYPE svg PUBLIC "-//W3C//DTD SVG 1.1//EN" "http://www.w3.org/Graphics/SVG/1.1/DTD/svg11.dtd" [
	<!ENTITY ns_extend "http://ns.adobe.com/Extensibility/1.0/">
	<!ENTITY ns_ai "http://ns.adobe.com/AdobeIllustrator/10.0/">
	<!ENTITY ns_graphs "http://ns.adobe.com/Graphs/1.0/">
	<!ENTITY ns_vars "http://ns.adobe.com/Variables/1.0/">
	<!ENTITY ns_imrep "http://ns.adobe.com/ImageReplacement/1.0/">
	<!ENTITY ns_sfw "http://ns.adobe.com/SaveForWeb/1.0/">
	<!ENTITY ns_custom "http://ns.adobe.com/GenericCustomNamespace/1.0/">
	<!ENTITY ns_adobe_xpath "http://ns.adobe.com/XPath/1.0/">
]>
<svg version="1.1" id="Layer_1" xmlns:x="&ns_extend;" xmlns:i="&ns_ai;" xmlns:graph="&ns_graphs;"
	 xmlns="http://www.w3.org/2000/svg" xmlns:xlink="http://www.w3.org/1999/xlink" x="0px" y="0px" viewBox="0 0 95 95"
	 enable-background="new 0 0 95 95" xml:space="preserve">
<metadata>
	<sfw  xmlns="&ns_sfw;">
		<slices></slices>
		<sliceSourceBounds  height="492.4" width="566.1" x="-75.6" y="-492.7" bottomLeftOrigin="true"></sliceSourceBounds>
	</sfw>
</metadata>
<g>
	<defs>
		<circle id="SVGID_1_" cx="47.3" cy="44.6" r="50.3"/>
	</defs>
	<clipPath id="SVGID_2_">
		<use xlink:href="#SVGID_1_"  overflow="visible"/>
	</clipPath>
	<g clip-path="url(#SVGID_2_)">
		<path fill="#999999" d="M45.1,29.7c0,5.9-4.8,10.7-10.7,10.7c-5.9,0-10.7-4.8-10.7-10.7S28.5,19,34.4,19
			C40.3,19,45.1,23.8,45.1,29.7L45.1,29.7z M45.1,29.7"/>
		<path fill="#999999" d="M70.7,32.3c0,5.7-4.7,10.4-10.4,10.4S49.9,38,49.9,32.3c0-5.7,4.7-10.4,10.4-10.4S70.7,26.5,70.7,32.3
			L70.7,32.3z M70.7,32.3"/>
		<path fill="#999999" d="M82.3,74.3c-2.4-16.5-6.1-23.5-15.1-29.1c-0.2-0.1-3-1.6-4.3-1.9l-2.6,2.6l-2.5-2.6c0,0,0,0,0,0
			c-1.9,0.5-6.6,3.5-9,5.8c-1.9-2.3-4.3-4.3-7.2-6c-0.2-0.1-3.1-1.7-4.5-2l-2.7,2.7L31.9,41c0,0,0,0,0,0c-1.8,0.6-3.5,1.6-5.4,2.9
			c-8.3,5.6-11.8,12.9-14.1,29c-0.3,2.3,1.2,4.4,3.5,4.7c0.2,0,0.4,0,0.6,0c2,0,3.8-1.5,4.1-3.6c0.9-5.8,1.8-10,3-13.2V74
			c0,1.1,0.2,2.2,0.6,3.1c0,0.2,0,0.4,0,0.7l3.8,39.8c0,2.7,2.2,4.9,4.9,4.9h7.6l0-28.2l-0.5-2V81.9c-0.9,1.5-1.7,5.9-1.7,9.3
			c0,1.4-1.2,2.6-2.6,2.6c-0.4,0-0.8-0.1-1.1-0.3L33.9,93c-0.5-0.5-0.7-1.1-0.7-1.8c0-2.6,0.3-4.9,0.7-6.8l0.3-1
			c2.8-9.8,10.5-11.5,11.5-11.7c0,0,0,0,0,0l1.7,1.8l1.7-1.8c0,0,0,0,0,0c1.2,0.3,12.5,2.8,12.5,19.6c0,1.4-1.2,2.6-2.6,2.6
			c-1.4,0-2.6-1.1-2.6-2.6c0-3.4-0.8-7.8-1.7-9.3v10.4l-0.5,1.9v28.2h8.1c2.6,0,4.8-2.1,4.8-4.8L70,97l5.3,0L71,67.5v-6.1
			c1.3,3.2,2.4,7.7,3.3,14c0.3,2,2,3.5,4,3.5c0.2,0,0.4,0,0.6,0C81.1,78.5,82.7,76.5,82.3,74.3L82.3,74.3z M47.3,71.3
			c-4,0-7.2-3.3-7.2-7.3s3.2-7.2,7.2-7.2c4,0,7.2,3.3,7.2,7.2S51.3,71.2,47.3,71.3L47.3,71.3z M47.3,71.3"/>
		<g>
			<path fill="#999999" d="M41,6.7h4c0.4,0,0.7-0.3,0.7-0.7V2c0-0.4,0.3-0.7,0.7-0.7h2.2c0.4,0,0.7,0.3,0.7,0.7v4
				c0,0.4,0.3,0.7,0.7,0.7h4c0.4,0,0.7,0.3,0.7,0.7v2.2c0,0.4-0.3,0.7-0.7,0.7h-4c-0.4,0-0.7,0.3-0.7,0.7v4c0,0.4-0.3,0.7-0.7,0.7
				h-2.2c-0.4,0-0.7-0.3-0.7-0.7v-4c0-0.4-0.3-0.7-0.7-0.7h-4c-0.4,0-0.7-0.3-0.7-0.7V7.4C40.3,7,40.6,6.7,41,6.7z"/>
		</g>
	</g>
</g>
</svg>
