<?xml version="1.0" encoding="utf-8"?>
<!-- Generator: Adobe Illustrator 19.1.0, SVG Export Plug-In . SVG Version: 6.00 Build 0)  -->
<!DOCTYPE svg PUBLIC "-//W3C//DTD SVG 1.1//EN" "http://www.w3.org/Graphics/SVG/1.1/DTD/svg11.dtd" [
	<!ENTITY ns_extend "http://ns.adobe.com/Extensibility/1.0/">
	<!ENTITY ns_ai "http://ns.adobe.com/AdobeIllustrator/10.0/">
	<!ENTITY ns_graphs "http://ns.adobe.com/Graphs/1.0/">
	<!ENTITY ns_vars "http://ns.adobe.com/Variables/1.0/">
	<!ENTITY ns_imrep "http://ns.adobe.com/ImageReplacement/1.0/">
	<!ENTITY ns_sfw "http://ns.adobe.com/SaveForWeb/1.0/">
	<!ENTITY ns_custom "http://ns.adobe.com/GenericCustomNamespace/1.0/">
	<!ENTITY ns_adobe_xpath "http://ns.adobe.com/XPath/1.0/">
]>
<svg version="1.1" id="Layer_1" xmlns:x="&ns_extend;" xmlns:i="&ns_ai;" xmlns:graph="&ns_graphs;"
	 xmlns="http://www.w3.org/2000/svg" xmlns:xlink="http://www.w3.org/1999/xlink" x="0px" y="0px" viewBox="0 0 95 95"
	 enable-background="new 0 0 95 95" xml:space="preserve">
<metadata>
	<sfw  xmlns="&ns_sfw;">
		<slices></slices>
		<sliceSourceBounds  height="389.1" width="523" x="-75.6" y="-389.4" bottomLeftOrigin="true"></sliceSourceBounds>
	</sfw>
</metadata>
<g>
	<g>
		<path fill="#369F48" d="M0,65.5v4.4c0,2.4,6.4,3,14.2,3h15.4v-7.3H0z"/>
		<path fill="#369F48" d="M75.8,65.5v5.4c0,0.7-0.1,1.3-0.4,1.9h5.1c7.8,0,14.2-0.5,14.2-3v-4.4H75.8z"/>
		<path fill="#369F48" d="M18.9,58V22.4h56.9l0,40.2h5.1V23.1c0-3.1-2.6-5.7-5.7-5.7H19.5c-3.1,0-5.7,2.6-5.7,5.7v39.5h15.8V58H18.9
			z M47.4,18.7c0.6,0,1.1,0.5,1.1,1.1c0,0.6-0.5,1.1-1.1,1.1c-0.6,0-1.1-0.5-1.1-1.1C46.2,19.3,46.7,18.7,47.4,18.7z"/>
	</g>
	<g>
		<rect x="57.1" y="69.8" fill="#369F48" width="1.4" height="1.4"/>
		<path fill="#369F48" d="M74,33c0-2.2-1.8-4.1-4.1-4.1h-1.5c-0.2-0.5-0.7-0.8-1.2-0.8h-1.4c-0.6,0-1,0.3-1.2,0.8H45.6
			c-2.2,0-4.1,1.8-4.1,4.1v10.4h2.7v-9.1h27.1v32.5H52.1v6.8c0,0.5-0.1,0.9-0.2,1.4h18c2.2,0,4.1-1.8,4.1-4.1V33z M58.5,32.3
			c-0.2,0.2-0.5,0.3-0.7,0.3c-0.3,0-0.5-0.1-0.7-0.3c-0.2-0.2-0.3-0.4-0.3-0.7c0-0.3,0.1-0.5,0.3-0.7c0.3-0.4,1.1-0.4,1.4,0
			c0.2,0.2,0.3,0.4,0.3,0.7C58.8,31.9,58.7,32.1,58.5,32.3z M55.8,69.1c0-0.4,0.3-0.7,0.7-0.7h2.7c0.4,0,0.7,0.3,0.7,0.7v2.7
			c0,0.4-0.3,0.7-0.7,0.7h-2.7c-0.4,0-0.7-0.3-0.7-0.7V69.1z"/>
	</g>
	<g>
		<rect x="40.2" y="72.5" fill="#369F48" width="1.4" height="1.4"/>
		<path fill="#369F48" d="M50.4,73.6V49.2c0-2.2-1.8-4.1-4.1-4.1H35.5c-2.2,0-4.1,1.8-4.1,4.1v24.4c0,2.2,1.8,4.1,4.1,4.1h10.8
			C48.6,77.6,50.4,75.8,50.4,73.6z M34.1,50.6h13.5v18.9H34.1V50.6z M39.6,47.2h2.7c0.4,0,0.7,0.3,0.7,0.7c0,0.4-0.3,0.7-0.7,0.7
			h-2.7c-0.4,0-0.7-0.3-0.7-0.7C38.9,47.5,39.2,47.2,39.6,47.2z M42.3,75.2h-2.7c-0.4,0-0.7-0.3-0.7-0.7v-2.7c0-0.4,0.3-0.7,0.7-0.7
			h2.7c0.4,0,0.7,0.3,0.7,0.7v2.7C42.9,74.9,42.6,75.2,42.3,75.2z"/>
	</g>
</g>
</svg>
