<?xml version="1.0" encoding="utf-8"?>
<!-- Generator: Adobe Illustrator 19.1.0, SVG Export Plug-In . SVG Version: 6.00 Build 0)  -->
<!DOCTYPE svg PUBLIC "-//W3C//DTD SVG 1.1//EN" "http://www.w3.org/Graphics/SVG/1.1/DTD/svg11.dtd" [
	<!ENTITY ns_extend "http://ns.adobe.com/Extensibility/1.0/">
	<!ENTITY ns_ai "http://ns.adobe.com/AdobeIllustrator/10.0/">
	<!ENTITY ns_graphs "http://ns.adobe.com/Graphs/1.0/">
	<!ENTITY ns_vars "http://ns.adobe.com/Variables/1.0/">
	<!ENTITY ns_imrep "http://ns.adobe.com/ImageReplacement/1.0/">
	<!ENTITY ns_sfw "http://ns.adobe.com/SaveForWeb/1.0/">
	<!ENTITY ns_custom "http://ns.adobe.com/GenericCustomNamespace/1.0/">
	<!ENTITY ns_adobe_xpath "http://ns.adobe.com/XPath/1.0/">
]>
<svg version="1.1" id="Layer_1" xmlns:x="&ns_extend;" xmlns:i="&ns_ai;" xmlns:graph="&ns_graphs;"
	 xmlns="http://www.w3.org/2000/svg" xmlns:xlink="http://www.w3.org/1999/xlink" x="0px" y="0px" viewBox="0 0 95 95"
	 enable-background="new 0 0 95 95" xml:space="preserve">
<metadata>
	<sfw  xmlns="&ns_sfw;">
		<slices></slices>
		<sliceSourceBounds  height="389.1" width="523" x="-75.6" y="-389.4" bottomLeftOrigin="true"></sliceSourceBounds>
	</sfw>
</metadata>
<g>
	<path fill="#009444" stroke="#009444" stroke-width="2.0649" stroke-miterlimit="10" d="M37.4,41.5c-1.3-0.7-1.8-2.3-1-3.6
		c0.3-0.5,0.7-0.9,1.2-1.1l8.8-2.5c-0.1-0.2-0.1-0.4,0-0.6l-8.1-2l-0.7-0.2c-1-0.4-1.7-1.3-1.7-2.4c0-1.5,1.1-2.7,2.6-2.7
		c0.6,0,1.1,0.2,1.6,0.5l0,0l0.6,0.6l0,0l0,0l0,0l5.9,5.7c0.1-0.2,0.3-0.3,0.5-0.3l-2.5-8.7c0-0.1,0-0.2,0-0.4
		c0-1.5,1.2-2.7,2.6-2.7c1.5,0,2.7,1.1,2.7,2.6c0,0.1,0,0.2,0,0.4l0,0l-0.2,0.7l0,0.1l0,0l-2,7.9c0.1,0,0.2,0.1,0.3,0.1
		c0.1,0.1,0.2,0.1,0.2,0.2l5.8-6l0.5-0.5c0.1-0.1,0.2-0.1,0.3-0.2c1.3-0.8,2.9-0.3,3.7,0.9c0.8,1.3,0.4,2.9-0.9,3.6
		c-0.1,0.1-0.2,0.1-0.3,0.2L57,31.2l-8.4,2.4c0.1,0.2,0.1,0.4,0,0.6l8.1,2l0.7,0.2l0,0c0.1,0,0.2,0.1,0.3,0.1c1.3,0.7,1.7,2.3,1,3.6
		c-0.7,1.3-2.3,1.8-3.6,1c-0.1-0.1-0.2-0.1-0.3-0.2l0,0l0,0l-0.3-0.3l-0.1-0.1l-6-5.8C48.2,34.9,48,35,47.8,35l2.3,8.2l0.1,0.4
		c0.2,1.1-0.3,2.2-1.2,2.8c-1.3,0.8-2.9,0.4-3.6-0.9C45.1,45,45,44.4,45,43.8l0,0l0.2-0.7l2-8.1c-0.1,0-0.2-0.1-0.3-0.1
		c-0.1-0.1-0.2-0.1-0.2-0.2l-5.9,6l0,0.1l-0.4,0.4C39.6,41.9,38.4,42,37.4,41.5z"/>
</g>
<path fill="#369F48" d="M47.5,0.5c-18.7,0-33.9,15.2-33.9,33.9c0,4.4,0.9,8.8,2.6,12.9c1,2.5,3,6.1,5.9,11.1
	c0.3,0.5,0.5,0.9,0.7,1.2c1.3,2.3,2,4.5,2,6.3c0,7.6,4.4,12.5,8.1,14.3l1.8,0.9h2h21.6h2l1.8-0.9c3.8-1.9,8.1-6.8,8.1-14.3
	c0-1.8,0.7-4,2-6.3c0.1-0.3,0.4-0.7,0.7-1.2c2.9-5,4.9-8.6,5.9-11.1c1.7-4.1,2.6-8.5,2.6-12.9C81.4,15.7,66.2,0.5,47.5,0.5z
	 M70.8,44.1c-1,2.8-5.1,9.6-6,11.2c-1.2,2.1-3.1,6.1-3.1,10.6s-2.8,6.3-3.4,6.6H36.7c-0.6-0.3-3.4-2.1-3.4-6.6s-1.9-8.4-3.1-10.6
	c-0.9-1.6-5-8.4-6-11.2c-1.2-3-2-6.3-2-9.8c0-14,11.3-25.3,25.3-25.3c14,0,25.3,11.3,25.3,25.3C72.8,37.8,72,41.1,70.8,44.1z"/>
<path fill="#369F48" d="M32.5,74.3v16c0,0,1.6,0.9,7,3.7c2,1,14.1,1,16.1,0c5.3-2.8,7-3.7,7-3.7v-16H32.5z"/>
</svg>
