<?xml version="1.0" encoding="utf-8"?>
<!-- Generator: Adobe Illustrator 19.1.0, SVG Export Plug-In . SVG Version: 6.00 Build 0)  -->
<!DOCTYPE svg PUBLIC "-//W3C//DTD SVG 1.1//EN" "http://www.w3.org/Graphics/SVG/1.1/DTD/svg11.dtd" [
	<!ENTITY ns_extend "http://ns.adobe.com/Extensibility/1.0/">
	<!ENTITY ns_ai "http://ns.adobe.com/AdobeIllustrator/10.0/">
	<!ENTITY ns_graphs "http://ns.adobe.com/Graphs/1.0/">
	<!ENTITY ns_vars "http://ns.adobe.com/Variables/1.0/">
	<!ENTITY ns_imrep "http://ns.adobe.com/ImageReplacement/1.0/">
	<!ENTITY ns_sfw "http://ns.adobe.com/SaveForWeb/1.0/">
	<!ENTITY ns_custom "http://ns.adobe.com/GenericCustomNamespace/1.0/">
	<!ENTITY ns_adobe_xpath "http://ns.adobe.com/XPath/1.0/">
]>
<svg version="1.1" id="Layer_1" xmlns:x="&ns_extend;" xmlns:i="&ns_ai;" xmlns:graph="&ns_graphs;"
	 xmlns="http://www.w3.org/2000/svg" xmlns:xlink="http://www.w3.org/1999/xlink" x="0px" y="0px" viewBox="0 0 95 95"
	 enable-background="new 0 0 95 95" xml:space="preserve">
<metadata>
	<sfw  xmlns="&ns_sfw;">
		<slices></slices>
		<sliceSourceBounds  height="492.4" width="566.1" x="-75.6" y="-492.7" bottomLeftOrigin="true"></sliceSourceBounds>
	</sfw>
</metadata>
<g>
	<path fill="#999999" d="M92.6,77.1L66.8,50.8c-1,0.6-1.8,1-3.1,1.4c-1.2,0.4-2.6,0.6-4.1,0.6c-1.6,0-3.3-0.4-4.7-0.8l-8.4,8.7
		c1,0.8,2.4,1.2,3.9,1.4c1.8,0,3.7-0.6,5.1-2l0.2-0.2l25.9,27.5c1,1,2.4,1.6,3.9,1.6c1.4,0,2.9-0.6,3.9-1.6l3.3-3.3
		c1-1,1.6-2.4,1.6-3.9C94.2,78.9,93.6,77.9,92.6,77.1L92.6,77.1z M92.6,77.1"/>
	<path fill="#999999" d="M30.7,42.7l7.7-7.3c-0.4-1.4-0.6-2.8-0.6-4.3c0-2.4,0.8-4.9,2-6.9L23.6,7.2c-2.4-2.4-6.7-2.4-9.2,0
		c-4.3,4.3-4.5,11.2-0.6,15.9L30.7,42.7z M30.7,42.7"/>
	<path fill="#999999" d="M55.1,45.1c1.2,1.2,2.9,1.8,4.5,1.8c1.6,0,3.3-0.6,4.5-1.8l20.6-20.6c0.8-0.8,0.8-2,0-2.9l-0.4-0.4
		c-0.4-0.4-0.8-0.6-1.4-0.6c-0.6,0-1,0.2-1.4,0.6L67.8,34.9c-0.6,0.6-1.4,0.8-2.2,0.8c-0.8,0-1.6-0.4-2.2-0.8l-0.4-0.4
		c-1.2-1.2-1.2-3.1,0-4.3l13.6-13.6c0.8-0.8,0.8-2,0-2.8l-0.4-0.4c-0.4-0.4-0.8-0.6-1.4-0.6c-0.6,0-1,0.2-1.4,0.6L59.6,27
		c-0.6,0.6-1.4,0.8-2.2,0.8c-0.8,0-1.6-0.4-2.2-0.8l-0.4-0.4c-0.6-0.6-0.8-1.4-0.8-2.2c0-0.8,0.4-1.6,0.8-2.2L68.4,8.5
		C68.8,8,69,7.6,69,7c0-0.6-0.2-1-0.6-1.4L68,5.2c-0.4-0.4-0.8-0.6-1.4-0.6c-0.6,0,0,0.8-0.4,1.2L45.6,26.4
		c-1.2,1.2-1.8,2.9-1.8,4.5c0,1.6,0.6,3.5,1.8,4.5l0.6,0.6L3.6,76.3c-1,1-1.6,2.4-1.6,3.9C2,81.6,2.6,83,3.6,84l3.1,3.5
		c1,1,2.4,2,3.9,2c1.4,0,2.9-1,3.9-2l40.1-43L55.1,45.1z M55.1,45.1"/>
</g>
</svg>
