<?xml version="1.0" encoding="utf-8"?>
<!-- Generator: Adobe Illustrator 18.0.0, SVG Export Plug-In . SVG Version: 6.00 Build 0)  -->
<!DOCTYPE svg PUBLIC "-//W3C//DTD SVG 1.1//EN" "http://www.w3.org/Graphics/SVG/1.1/DTD/svg11.dtd">
<svg version="1.1" id="Layer_1" xmlns="http://www.w3.org/2000/svg" xmlns:xlink="http://www.w3.org/1999/xlink" x="0px" y="0px"
	 viewBox="0 0 16 16" enable-background="new 0 0 16 16" xml:space="preserve">
<path fill="#FFFFFF" d="M8,0.3C3.7,0.3,0.3,3.7,0.3,8c0,4.3,3.4,7.7,7.7,7.7c4.3,0,7.7-3.4,7.7-7.7C15.7,3.7,12.3,0.3,8,0.3z
	 M13.2,9.6H9.6v3.5c0,0.4-0.3,0.7-0.7,0.7H7.1c-0.4,0-0.7-0.3-0.7-0.7V9.6H2.8c-0.4,0-0.7-0.3-0.7-0.7V7.1c0-0.4,0.3-0.7,0.7-0.7
	h3.5V2.8c0-0.4,0.3-0.7,0.7-0.7h1.8c0.4,0,0.7,0.3,0.7,0.7v3.5h3.5c0.4,0,0.7,0.3,0.7,0.7v1.8C13.9,9.3,13.6,9.6,13.2,9.6z"/>
</svg>
