<?xml version="1.0" encoding="utf-8"?>
<!-- Generator: Adobe Illustrator 19.1.0, SVG Export Plug-In . SVG Version: 6.00 Build 0)  -->
<!DOCTYPE svg PUBLIC "-//W3C//DTD SVG 1.1//EN" "http://www.w3.org/Graphics/SVG/1.1/DTD/svg11.dtd" [
	<!ENTITY ns_extend "http://ns.adobe.com/Extensibility/1.0/">
	<!ENTITY ns_ai "http://ns.adobe.com/AdobeIllustrator/10.0/">
	<!ENTITY ns_graphs "http://ns.adobe.com/Graphs/1.0/">
	<!ENTITY ns_vars "http://ns.adobe.com/Variables/1.0/">
	<!ENTITY ns_imrep "http://ns.adobe.com/ImageReplacement/1.0/">
	<!ENTITY ns_sfw "http://ns.adobe.com/SaveForWeb/1.0/">
	<!ENTITY ns_custom "http://ns.adobe.com/GenericCustomNamespace/1.0/">
	<!ENTITY ns_adobe_xpath "http://ns.adobe.com/XPath/1.0/">
]>
<svg version="1.1" id="Layer_1" xmlns:x="&ns_extend;" xmlns:i="&ns_ai;" xmlns:graph="&ns_graphs;"
	 xmlns="http://www.w3.org/2000/svg" xmlns:xlink="http://www.w3.org/1999/xlink" x="0px" y="0px" viewBox="0 0 95 95"
	 enable-background="new 0 0 95 95" xml:space="preserve">
<metadata>
	<sfw  xmlns="&ns_sfw;">
		<slices></slices>
		<sliceSourceBounds  height="389.1" width="523" x="-75.6" y="-389.4" bottomLeftOrigin="true"></sliceSourceBounds>
	</sfw>
</metadata>
<path fill="#369F48" d="M25,78.7c0.5-0.7,0.8-1.4,1-2.2c0.1-0.4,0.1-0.9,0.1-1.4c0-0.5-0.1-0.9-0.2-1.3c-0.1-0.3-0.2-0.6-0.3-0.9
	c-0.4-0.9-0.9-1.7-1.5-2.4c-0.6-0.6-1.4-1.1-2.4-1.5c-0.3-0.1-0.6-0.2-0.9-0.3c-0.4-0.1-0.8-0.2-1.3-0.2c-0.5,0-0.9,0-1.4,0.1
	c-0.8,0.2-1.5,0.5-2.2,1c-0.3,0.2-0.5,0.4-0.7,0.6c-1,1-1.5,2.3-1.7,3.8c-0.1,0.4-0.1,0.9-0.2,1.3c-0.1,0.3-0.2,0.5-0.4,0.6
	c-0.3,0.3-0.8,0.4-1.4,0.1c-0.3-0.2-0.7-0.4-0.9-0.7l-0.1-0.1C10.2,75.1,10.1,75,10,75c-0.2-0.2-0.3-0.3-0.5-0.5l-0.1-0.1
	c-0.5-0.5-1.1-1.1-1.6-1.6c-1.1-1.1-2.3-2.3-3.4-3.4C4,69,3.6,68.6,3.3,68.2c-0.2-0.2-0.3-0.4-0.4-0.5c-0.1-0.1-0.1-0.2-0.2-0.3
	c-0.5-1-0.3-2.1,0.6-3c0.3-0.3,0.5-0.5,0.8-0.8c1.5-1.5,3-3,4.6-4.6c0.4-0.4,0.9-0.9,1.3-1.3c0.3-0.3,0.6-0.6,0.9-1
	c0.2-0.3,0.4-0.6,0.5-0.9c0.4-1.1,0.1-2.1-0.7-2.8c-0.2-0.2-0.5-0.4-0.9-0.5c-0.5-0.2-1-0.2-1.5-0.3c-1.9-0.2-3.4-1.3-4.2-2.8
	c-0.2-0.4-0.3-0.8-0.4-1.2c-0.1-0.4-0.1-0.8-0.1-1.2c0.1-1.3,0.7-2.5,1.6-3.4c0.1-0.1,0.1-0.1,0.1-0.1c1-1,2.1-1.6,3.4-1.6
	c0.4,0,0.8,0,1.2,0.1c0.4,0.1,0.8,0.2,1.2,0.4c1.5,0.7,2.6,2.3,2.8,4.2c0.1,0.5,0.1,1,0.3,1.5c0.1,0.3,0.3,0.7,0.5,0.9
	c0.7,0.7,1.6,1,2.6,0.6c0.4-0.1,0.7-0.3,1-0.5c0.3-0.3,0.7-0.6,1-0.9c0.4-0.4,0.9-0.9,1.3-1.3c1.4-1.4,2.7-2.7,4.1-4.1l0.5-0.5
	c0.3-0.3,0.5-0.5,0.8-0.8c0.9-0.9,2-1.1,3-0.6c0.1,0,0.2,0.1,0.3,0.2c0.2,0.1,0.4,0.3,0.5,0.4c0.4,0.4,0.8,0.8,1.1,1.1
	c1.1,1.1,2.3,2.3,3.4,3.4c0.5,0.5,1.1,1.1,1.6,1.6l0.1,0.1c0.1,0.2,0.3,0.3,0.4,0.5c0,0,0.2,0.2,0.4,0.4l0.1,0.1
	c0.3,0.3,0.5,0.6,0.7,0.9c0.3,0.6,0.2,1-0.1,1.4c-0.1,0.1-0.4,0.3-0.6,0.4c-0.4,0.1-0.9,0.2-1.3,0.2c-1.5,0.2-2.8,0.7-3.8,1.7
	c-0.2,0.2-0.4,0.5-0.6,0.7c-0.5,0.7-0.8,1.4-1,2.2c-0.1,0.4-0.1,0.9-0.1,1.4c0,0.5,0.1,0.9,0.2,1.3c0.1,0.3,0.2,0.6,0.3,0.9
	c0.4,0.9,0.9,1.7,1.5,2.4c0.6,0.6,1.4,1.1,2.4,1.5c0.3,0.1,0.6,0.2,0.9,0.3c0.4,0.1,0.8,0.2,1.3,0.2c0.5,0,0.9,0,1.4-0.1
	c0.8-0.2,1.5-0.5,2.2-1c0.3-0.2,0.5-0.4,0.7-0.6c1-1,1.5-2.3,1.7-3.8c0.1-0.4,0.1-0.9,0.2-1.3c0.1-0.3,0.2-0.5,0.4-0.6
	c0.3-0.3,0.8-0.4,1.4-0.1c0.3,0.2,0.7,0.4,0.9,0.7l0.1,0.1c0.2,0.2,0.3,0.3,0.4,0.4c0.2,0.2,0.3,0.3,0.5,0.5l0.1,0.1
	c0.5,0.5,1.1,1.1,1.6,1.6c1.1,1.1,2.3,2.3,3.4,3.4c0.4,0.4,0.8,0.8,1.1,1.1c0.2,0.2,0.3,0.4,0.4,0.5c0.1,0.1,0.1,0.2,0.2,0.3
	c0.5,1,0.3,2.1-0.6,3c-0.3,0.3-0.5,0.5-0.8,0.8c-1.5,1.5-3,3-4.6,4.6c-0.4,0.4-0.9,0.9-1.3,1.3c-0.3,0.3-0.6,0.6-0.9,1
	c-0.2,0.3-0.4,0.6-0.5,0.9c-0.4,1.1-0.1,2.1,0.7,2.8c0.2,0.2,0.5,0.4,0.9,0.5c0.5,0.2,1,0.2,1.5,0.3c1.9,0.2,3.4,1.3,4.2,2.8
	c0.2,0.4,0.3,0.8,0.4,1.2c0.1,0.4,0.1,0.8,0.1,1.2c-0.1,1.3-0.7,2.5-1.6,3.4c-0.1,0.1-0.1,0.1-0.1,0.1c-1,1-2.1,1.6-3.4,1.6
	c-0.4,0-0.8,0-1.2-0.1c-0.4-0.1-0.8-0.2-1.2-0.4c-1.5-0.7-2.6-2.3-2.8-4.2c-0.1-0.5-0.1-1-0.3-1.5c-0.1-0.3-0.3-0.7-0.5-0.9
	c-0.7-0.7-1.6-1-2.6-0.6c-0.4,0.1-0.7,0.3-1,0.5c-0.3,0.3-0.7,0.6-1,0.9c-0.4,0.4-0.9,0.9-1.3,1.3c-1.5,1.5-3,3-4.6,4.6
	c-0.3,0.3-0.5,0.5-0.8,0.8c-0.9,0.9-2,1.1-3,0.6c-0.1,0-0.2-0.1-0.3-0.2c-0.2-0.1-0.4-0.3-0.5-0.4c-0.4-0.4-0.8-0.8-1.1-1.1
	c-1.1-1.1-2.3-2.3-3.4-3.4c-0.5-0.5-1.1-1.1-1.6-1.6L20.1,85c-0.1-0.2-0.3-0.3-0.4-0.5c0,0-0.2-0.2-0.4-0.4l-0.1-0.1
	c-0.3-0.3-0.5-0.6-0.7-0.9c-0.3-0.6-0.2-1,0.1-1.4c0.1-0.1,0.4-0.3,0.6-0.4c0.4-0.1,0.9-0.2,1.3-0.2c1.5-0.2,2.8-0.7,3.8-1.7
	C24.6,79.3,24.8,79,25,78.7z"/>
<path fill="#369F48" d="M54.9,24.3c0.7,0.5,1.4,0.8,2.2,1c0.4,0.1,0.9,0.1,1.4,0.1c0.5,0,0.9-0.1,1.3-0.2c0.3-0.1,0.6-0.2,0.9-0.3
	c0.9-0.4,1.7-0.9,2.4-1.5c0.6-0.6,1.1-1.4,1.5-2.4c0.1-0.3,0.2-0.6,0.3-0.9c0.1-0.4,0.2-0.8,0.2-1.3c0-0.5,0-0.9-0.1-1.4
	c-0.2-0.8-0.5-1.5-1-2.2c-0.2-0.3-0.4-0.5-0.6-0.7c-1-1-2.3-1.5-3.8-1.7c-0.4-0.1-0.9-0.1-1.3-0.2c-0.3-0.1-0.5-0.2-0.6-0.4
	c-0.3-0.3-0.4-0.8-0.1-1.4c0.2-0.3,0.4-0.7,0.7-0.9l0.1-0.1c0.2-0.2,0.3-0.3,0.4-0.4c0.2-0.2,0.3-0.3,0.5-0.5l0.1-0.1
	c0.5-0.5,1.1-1.1,1.6-1.6C62,6,63.1,4.9,64.3,3.7C64.6,3.3,65,3,65.4,2.6c0.2-0.2,0.4-0.3,0.5-0.4C66,2.1,66.1,2,66.2,2
	c1-0.5,2.1-0.3,3,0.6c0.3,0.3,0.5,0.5,0.8,0.8c1.5,1.5,3,3,4.6,4.6c0.4,0.4,0.9,0.9,1.3,1.3c0.3,0.3,0.6,0.6,1,0.9
	c0.3,0.2,0.6,0.4,0.9,0.5c1.1,0.4,2.1,0.1,2.8-0.7c0.2-0.2,0.4-0.5,0.5-0.9c0.2-0.5,0.2-1,0.3-1.5c0.2-1.9,1.3-3.4,2.8-4.2
	c0.4-0.2,0.8-0.3,1.2-0.4C85.6,3,86,2.9,86.4,3c1.3,0.1,2.5,0.7,3.4,1.6C90,4.7,90,4.7,90,4.7c1,1,1.6,2.1,1.6,3.4
	c0,0.4,0,0.8-0.1,1.2c-0.1,0.4-0.2,0.8-0.4,1.2c-0.7,1.5-2.3,2.6-4.2,2.8c-0.5,0.1-1,0.1-1.5,0.3c-0.3,0.1-0.7,0.3-0.9,0.5
	c-0.7,0.7-1,1.6-0.6,2.6c0.1,0.4,0.3,0.7,0.5,1c0.3,0.3,0.6,0.7,0.9,1c0.4,0.4,0.9,0.9,1.3,1.3c1.4,1.4,2.7,2.7,4.1,4.1l0.5,0.5
	c0.3,0.3,0.5,0.5,0.8,0.8c0.9,0.9,1.1,2,0.6,3c0,0.1-0.1,0.2-0.2,0.3c-0.1,0.2-0.3,0.4-0.4,0.5c-0.4,0.4-0.8,0.8-1.1,1.1
	c-1.1,1.1-2.3,2.3-3.4,3.4c-0.5,0.5-1.1,1.1-1.6,1.6l-0.1,0.1c-0.2,0.1-0.3,0.3-0.5,0.4c0,0-0.2,0.2-0.4,0.4l-0.1,0.1
	c-0.3,0.3-0.6,0.5-0.9,0.7c-0.6,0.3-1,0.2-1.4-0.1c-0.1-0.1-0.3-0.4-0.4-0.6c-0.1-0.4-0.2-0.9-0.2-1.3c-0.2-1.5-0.7-2.8-1.7-3.8
	c-0.2-0.2-0.5-0.4-0.7-0.6c-0.7-0.5-1.4-0.8-2.2-1c-0.4-0.1-0.9-0.1-1.4-0.1c-0.5,0-0.9,0.1-1.3,0.2c-0.3,0.1-0.6,0.2-0.9,0.3
	c-0.9,0.4-1.7,0.9-2.4,1.5c-0.6,0.6-1.1,1.4-1.5,2.4c-0.1,0.3-0.2,0.6-0.3,0.9c-0.1,0.4-0.2,0.8-0.2,1.3c0,0.5,0,0.9,0.1,1.4
	c0.2,0.8,0.5,1.5,1,2.2c0.2,0.3,0.4,0.5,0.6,0.7c1,1,2.3,1.5,3.8,1.7c0.4,0.1,0.9,0.1,1.3,0.2c0.3,0.1,0.5,0.2,0.6,0.4
	c0.3,0.3,0.4,0.8,0.1,1.4c-0.2,0.3-0.4,0.7-0.7,0.9L76,45.2c-0.2,0.2-0.3,0.3-0.4,0.4c-0.2,0.2-0.3,0.3-0.5,0.5l-0.1,0.1
	c-0.5,0.5-1.1,1.1-1.6,1.6c-1.1,1.1-2.3,2.3-3.4,3.4c-0.4,0.4-0.8,0.8-1.1,1.1c-0.2,0.2-0.4,0.3-0.5,0.4c-0.1,0.1-0.2,0.1-0.3,0.2
	c-1,0.5-2.1,0.3-3-0.6c-0.3-0.3-0.5-0.5-0.8-0.8c-1.5-1.5-3-3-4.6-4.6c-0.4-0.4-0.9-0.9-1.3-1.3c-0.3-0.3-0.6-0.6-1-0.9
	c-0.3-0.2-0.6-0.4-0.9-0.5c-1.1-0.4-2.1-0.1-2.8,0.7c-0.2,0.2-0.4,0.5-0.5,0.9c-0.2,0.5-0.2,1-0.3,1.5c-0.2,1.9-1.3,3.4-2.8,4.2
	c-0.4,0.2-0.8,0.3-1.2,0.4C48.6,52,48.2,52,47.8,52c-1.3-0.1-2.5-0.7-3.4-1.6c-0.1-0.1-0.1-0.1-0.1-0.1c-1-1-1.6-2.1-1.6-3.4
	c0-0.4,0-0.8,0.1-1.2c0.1-0.4,0.2-0.8,0.4-1.2c0.7-1.5,2.3-2.6,4.2-2.8c0.5-0.1,1-0.1,1.5-0.3c0.3-0.1,0.7-0.3,0.9-0.5
	c0.7-0.7,1-1.6,0.6-2.6c-0.1-0.4-0.3-0.7-0.5-1c-0.3-0.3-0.6-0.7-0.9-1c-0.4-0.4-0.9-0.9-1.3-1.3c-1.5-1.5-3-3-4.6-4.6
	c-0.3-0.3-0.5-0.5-0.8-0.8c-0.9-0.9-1.1-2-0.6-3c0-0.1,0.1-0.2,0.2-0.3c0.1-0.2,0.3-0.4,0.4-0.5c0.4-0.4,0.8-0.8,1.1-1.1
	c1.1-1.1,2.3-2.3,3.4-3.4c0.5-0.5,1.1-1.1,1.6-1.6l0.1-0.1c0.2-0.1,0.3-0.3,0.5-0.4c0,0,0.2-0.2,0.4-0.4l0.1-0.1
	c0.3-0.3,0.6-0.5,0.9-0.7c0.6-0.3,1-0.2,1.4,0.1c0.1,0.1,0.3,0.4,0.4,0.6c0.1,0.4,0.2,0.9,0.2,1.3c0.2,1.5,0.7,2.8,1.7,3.8
	C54.4,23.9,54.6,24.1,54.9,24.3z"/>
</svg>
