<?xml version="1.0" encoding="utf-8"?>
<!-- Generator: Adobe Illustrator 19.1.0, SVG Export Plug-In . SVG Version: 6.00 Build 0)  -->
<!DOCTYPE svg PUBLIC "-//W3C//DTD SVG 1.1//EN" "http://www.w3.org/Graphics/SVG/1.1/DTD/svg11.dtd" [
	<!ENTITY ns_extend "http://ns.adobe.com/Extensibility/1.0/">
	<!ENTITY ns_ai "http://ns.adobe.com/AdobeIllustrator/10.0/">
	<!ENTITY ns_graphs "http://ns.adobe.com/Graphs/1.0/">
	<!ENTITY ns_vars "http://ns.adobe.com/Variables/1.0/">
	<!ENTITY ns_imrep "http://ns.adobe.com/ImageReplacement/1.0/">
	<!ENTITY ns_sfw "http://ns.adobe.com/SaveForWeb/1.0/">
	<!ENTITY ns_custom "http://ns.adobe.com/GenericCustomNamespace/1.0/">
	<!ENTITY ns_adobe_xpath "http://ns.adobe.com/XPath/1.0/">
]>
<svg version="1.1" id="Layer_1" xmlns:x="&ns_extend;" xmlns:i="&ns_ai;" xmlns:graph="&ns_graphs;"
	 xmlns="http://www.w3.org/2000/svg" xmlns:xlink="http://www.w3.org/1999/xlink" x="0px" y="0px" viewBox="0 0 95 95"
	 enable-background="new 0 0 95 95" xml:space="preserve">
<metadata>
	<sfw  xmlns="&ns_sfw;">
		<slices></slices>
		<sliceSourceBounds  width="925" height="717.4" y="-717.7" x="-236" bottomLeftOrigin="true"></sliceSourceBounds>
	</sfw>
</metadata>
<g>
	<g id="b103_soup_2_">
		<path fill="#999999" d="M72.8,35.8H53c1.8,0,3.2-1.5,3.2-3.2c0-1.8-1.5-3.2-3.2-3.2h-8.1c-1.8,0-3.2,1.4-3.2,3.2
			c0,1.8,1.5,3.2,3.2,3.2H25.1c-5.5,0-10.1,4.9-10.9,10.2h69.5C82.8,40.7,78.3,35.8,72.8,35.8z"/>
		<path fill="#999999" d="M83.9,51.5v-0.9H14.2H14H2.4v4.6H14v28.7C14,90,19,95,25.1,95h47.6c6.1,0,11.1-5,11.1-11.1V56.1H95v-4.6
			H83.9z"/>
		<path fill="#999999" d="M31.9,13.5c0.3,0.4,0.7,0.8,1,1.2l0.9,0.9c0.6,0.6,1.1,1.1,1.5,1.6c0.2,0.3,0.4,0.5,0.5,0.7
			c0.1,0.2,0.2,0.3,0.3,0.6c0,0.2-0.1,0.6-0.3,0.9s-0.6,0.7-1,1c0.5,0.2,1,0.3,1.6,0.2c0.6-0.1,1.2-0.3,1.7-0.9
			c0.5-0.5,0.8-1.3,0.8-2c0-0.7-0.1-1.3-0.2-1.9c-0.3-1.1-0.9-2.1-1.4-2.9c-0.3-0.4-0.6-0.8-0.9-1.2c-0.3-0.3-0.5-0.6-0.7-0.9
			c-0.9-1.2-1.5-2.3-1.7-3.6c-0.2-1.3,0-3,0.8-4.8c-2,0.4-3.8,2.1-4.4,4.5c-0.3,1.2-0.2,2.5,0.1,3.6C30.8,11.6,31.3,12.7,31.9,13.5z
			"/>
		<path fill="#999999" d="M44,13.5c0.3,0.4,0.7,0.8,1,1.2l0.9,0.9c0.6,0.6,1.1,1.1,1.5,1.6c0.2,0.3,0.4,0.5,0.5,0.7
			c0.1,0.2,0.2,0.3,0.3,0.6c0,0.2-0.1,0.6-0.3,0.9c-0.3,0.3-0.6,0.7-1,1c0.5,0.2,1,0.3,1.6,0.2c0.6-0.1,1.2-0.3,1.7-0.9
			c0.5-0.5,0.8-1.3,0.8-2c0-0.7-0.1-1.3-0.2-1.9c-0.3-1.1-0.9-2.1-1.4-2.9c-0.3-0.4-0.6-0.8-0.9-1.2c-0.2-0.3-0.5-0.6-0.7-0.9
			c-0.9-1.2-1.5-2.3-1.7-3.6c-0.2-1.3,0-2.9,0.8-4.8c-2,0.4-3.8,2.1-4.4,4.5c-0.3,1.2-0.2,2.5,0.1,3.6C42.8,11.6,43.3,12.7,44,13.5z
			"/>
		<path fill="#999999" d="M54.9,13.5c0.3,0.4,0.7,0.8,1,1.2l0.9,0.9c0.6,0.6,1.1,1.1,1.5,1.6c0.2,0.3,0.4,0.5,0.5,0.7
			c0.1,0.2,0.2,0.3,0.3,0.6c0,0.2-0.1,0.6-0.3,0.9c-0.3,0.3-0.6,0.7-1,1c0.5,0.2,1,0.3,1.6,0.2c0.6-0.1,1.2-0.3,1.7-0.9
			c0.5-0.5,0.8-1.3,0.8-2c0-0.7-0.1-1.3-0.2-1.9c-0.3-1.1-0.9-2.1-1.4-2.9c-0.3-0.4-0.6-0.8-0.9-1.2c-0.3-0.3-0.5-0.6-0.7-0.9
			c-0.9-1.2-1.5-2.3-1.7-3.6c-0.2-1.3,0-3,0.8-4.8c-2,0.4-3.8,2.1-4.4,4.5c-0.3,1.2-0.2,2.5,0.1,3.6C53.7,11.6,54.3,12.7,54.9,13.5z
			"/>
	</g>
</g>
</svg>
