<?xml version="1.0" encoding="utf-8"?>
<!-- Generator: Adobe Illustrator 19.1.0, SVG Export Plug-In . SVG Version: 6.00 Build 0)  -->
<!DOCTYPE svg PUBLIC "-//W3C//DTD SVG 1.1//EN" "http://www.w3.org/Graphics/SVG/1.1/DTD/svg11.dtd" [
	<!ENTITY ns_extend "http://ns.adobe.com/Extensibility/1.0/">
	<!ENTITY ns_ai "http://ns.adobe.com/AdobeIllustrator/10.0/">
	<!ENTITY ns_graphs "http://ns.adobe.com/Graphs/1.0/">
	<!ENTITY ns_vars "http://ns.adobe.com/Variables/1.0/">
	<!ENTITY ns_imrep "http://ns.adobe.com/ImageReplacement/1.0/">
	<!ENTITY ns_sfw "http://ns.adobe.com/SaveForWeb/1.0/">
	<!ENTITY ns_custom "http://ns.adobe.com/GenericCustomNamespace/1.0/">
	<!ENTITY ns_adobe_xpath "http://ns.adobe.com/XPath/1.0/">
]>
<svg version="1.1" id="Layer_1" xmlns:x="&ns_extend;" xmlns:i="&ns_ai;" xmlns:graph="&ns_graphs;"
	 xmlns="http://www.w3.org/2000/svg" xmlns:xlink="http://www.w3.org/1999/xlink" x="0px" y="0px" viewBox="0 0 24 24"
	 enable-background="new 0 0 24 24" xml:space="preserve">
<metadata>
	<sfw  xmlns="&ns_sfw;">
		<slices></slices>
		<sliceSourceBounds  height="318.6" width="465" x="-205.1" y="-318.9" bottomLeftOrigin="true"></sliceSourceBounds>
	</sfw>
</metadata>
<g>
	<path fill="#009444" stroke="#009444" stroke-width="2.736" stroke-miterlimit="10" d="M4.1,17.9c-1-0.6-1.4-1.8-0.8-2.8
		c0.2-0.4,0.6-0.7,1-0.9l6.9-2c-0.1-0.1-0.1-0.3,0-0.5l-6.4-1.6l-0.5-0.1C3.5,9.8,2.9,9,2.9,8.2C2.9,7,3.8,6,4.9,6
		c0.5,0,0.9,0.1,1.2,0.4l0,0l0.5,0.5l0,0l0,0l0,0l4.6,4.4c0.1-0.1,0.3-0.2,0.4-0.2l-2-6.8c0-0.1,0-0.2,0-0.3c0-1.1,0.9-2.1,2.1-2.1
		c1.1,0,2.1,0.9,2.1,2c0,0.1,0,0.2,0,0.3l0,0l-0.1,0.6l0,0l0,0l-1.5,6.2c0.1,0,0.2,0,0.2,0.1c0.1,0,0.1,0.1,0.2,0.1l4.5-4.7l0.4-0.4
		c0.1-0.1,0.1-0.1,0.2-0.2c1-0.6,2.3-0.3,2.9,0.7c0.6,1,0.3,2.3-0.7,2.9c-0.1,0.1-0.2,0.1-0.3,0.1l-0.3,0.1l-6.6,1.9
		c0.1,0.1,0.1,0.3,0,0.5l6.4,1.6l0.5,0.1l0,0C19.9,14,20,14,20,14c1,0.6,1.4,1.8,0.8,2.8c-0.6,1-1.8,1.4-2.8,0.8
		c-0.1,0-0.2-0.1-0.2-0.1l0,0l0,0l-0.3-0.3l-0.1-0.1l-4.7-4.5c-0.1,0.1-0.2,0.2-0.4,0.2l1.8,6.4l0.1,0.4c0.2,0.8-0.2,1.7-1,2.2
		c-1,0.6-2.3,0.3-2.9-0.7c-0.2-0.4-0.3-0.9-0.3-1.3l0,0l0.1-0.5l1.6-6.3c-0.1,0-0.2,0-0.2-0.1c-0.1,0-0.1-0.1-0.2-0.1l-4.6,4.7
		l0,0.1l-0.3,0.3C5.8,18.3,4.9,18.4,4.1,17.9z"/>
</g>
</svg>
