<?xml version="1.0" encoding="utf-8"?>
<!-- Generator: Adobe Illustrator 19.1.0, SVG Export Plug-In . SVG Version: 6.00 Build 0)  -->
<!DOCTYPE svg PUBLIC "-//W3C//DTD SVG 1.1//EN" "http://www.w3.org/Graphics/SVG/1.1/DTD/svg11.dtd" [
	<!ENTITY ns_extend "http://ns.adobe.com/Extensibility/1.0/">
	<!ENTITY ns_ai "http://ns.adobe.com/AdobeIllustrator/10.0/">
	<!ENTITY ns_graphs "http://ns.adobe.com/Graphs/1.0/">
	<!ENTITY ns_vars "http://ns.adobe.com/Variables/1.0/">
	<!ENTITY ns_imrep "http://ns.adobe.com/ImageReplacement/1.0/">
	<!ENTITY ns_sfw "http://ns.adobe.com/SaveForWeb/1.0/">
	<!ENTITY ns_custom "http://ns.adobe.com/GenericCustomNamespace/1.0/">
	<!ENTITY ns_adobe_xpath "http://ns.adobe.com/XPath/1.0/">
]>
<svg version="1.1" id="Layer_1" xmlns:x="&ns_extend;" xmlns:i="&ns_ai;" xmlns:graph="&ns_graphs;"
	 xmlns="http://www.w3.org/2000/svg" xmlns:xlink="http://www.w3.org/1999/xlink" x="0px" y="0px" viewBox="0 0 95 95"
	 enable-background="new 0 0 95 95" xml:space="preserve">
<metadata>
	<sfw  xmlns="&ns_sfw;">
		<slices></slices>
		<sliceSourceBounds  height="492.4" width="566.1" x="-75.6" y="-492.7" bottomLeftOrigin="true"></sliceSourceBounds>
	</sfw>
</metadata>
<path fill="#999999" d="M82.7,9.9c-2.1-3.7-5.7-6-9.8-6.5C72,2,70.5,1,68.7,1C66.1,1,64,3.1,64,5.7c0,2.6,2.1,4.7,4.7,4.7
	c1.7,0,3.2-0.9,4-2.2c2.5,0.4,4.6,1.9,5.9,4.1c1.5,2.7,1.5,5.9,0,8.5L63.7,46.7c-1.5,2.7-4.3,4.3-7.4,4.3c-3.1,0-5.8-1.6-7.4-4.3
	L34,20.8c-1.5-2.7-1.5-5.9,0-8.5c1.3-2.2,3.4-3.7,5.9-4.1c0.8,1.3,2.3,2.2,4,2.2c2.6,0,4.7-2.1,4.7-4.7c0-2.6-2.1-4.7-4.7-4.7
	c-1.8,0-3.3,1-4.1,2.5C35.7,4,32.1,6.3,30,9.9c-2.4,4.1-2.4,9,0,13.2L44.9,49c2,3.4,5.3,5.7,9.1,6.4v12.5c0,12.2-7.2,22.1-16,22.1
	s-16-9.9-16-22.1V53c5.3-1.1,9.3-5.8,9.3-11.4C31.2,35.2,26,30,19.6,30C13.2,30,8,35.2,8,41.6c0,5.6,4,10.3,9.3,11.4v14.8
	c0,14.7,9.3,26.7,20.7,26.7c11.4,0,20.7-12,20.7-26.7V55.4c3.8-0.7,7.1-2.9,9.1-6.4l14.9-25.9C85,19,85,14.1,82.7,9.9z"/>
</svg>
