<?xml version="1.0" encoding="utf-8"?>
<!-- Generator: Adobe Illustrator 19.1.0, SVG Export Plug-In . SVG Version: 6.00 Build 0)  -->
<!DOCTYPE svg PUBLIC "-//W3C//DTD SVG 1.1//EN" "http://www.w3.org/Graphics/SVG/1.1/DTD/svg11.dtd" [
	<!ENTITY ns_extend "http://ns.adobe.com/Extensibility/1.0/">
	<!ENTITY ns_ai "http://ns.adobe.com/AdobeIllustrator/10.0/">
	<!ENTITY ns_graphs "http://ns.adobe.com/Graphs/1.0/">
	<!ENTITY ns_vars "http://ns.adobe.com/Variables/1.0/">
	<!ENTITY ns_imrep "http://ns.adobe.com/ImageReplacement/1.0/">
	<!ENTITY ns_sfw "http://ns.adobe.com/SaveForWeb/1.0/">
	<!ENTITY ns_custom "http://ns.adobe.com/GenericCustomNamespace/1.0/">
	<!ENTITY ns_adobe_xpath "http://ns.adobe.com/XPath/1.0/">
]>
<svg version="1.1" id="Layer_1" xmlns:x="&ns_extend;" xmlns:i="&ns_ai;" xmlns:graph="&ns_graphs;"
	 xmlns="http://www.w3.org/2000/svg" xmlns:xlink="http://www.w3.org/1999/xlink" x="0px" y="0px" viewBox="0 0 95 95"
	 enable-background="new 0 0 95 95" xml:space="preserve">
<metadata>
	<sfw  xmlns="&ns_sfw;">
		<slices></slices>
		<sliceSourceBounds  height="389.1" width="523" x="-75.6" y="-389.4" bottomLeftOrigin="true"></sliceSourceBounds>
	</sfw>
</metadata>
<g>
	<path fill="#369F48" d="M38.4,23.8c-1.1,1.1-1.1,3,0,4.1c1.3,1.3,3.1,1,4.1,0l10.1-10.1c0.2,0.8,0.4,1.5,0.6,2.3L40,33.4
		c-1.3,1.3-1.3,3.3,0,4.5c1.4,1.4,3.5,1.1,4.5,0l12.1-12.1c0.6,0.8,1.4,1.5,1.4,1.5L44.8,40.5c-1.2,1.3-1.2,3.3,0,4.5
		c1.5,1.5,3.6,1,4.5,0l14-14c0.7,0.3,1.4,0.6,2.1,0.8L53.3,44c-1.2,1.2-1.2,3.3,0,4.5c1.5,1.5,3.6,0.9,4.5,0L73,33.4
		c-0.1,1.1-0.3,2.2-0.7,3.5c-2.2,7.6,3.8,10.1,5.7,9.2c1.4-0.7-0.8-6,3.3-15.1c3.8-8.5,4.7-15.7-3.5-23.9c-6-6-14.7-8-22-0.7
		L38.4,23.8z"/>
	<path fill="#369F48" d="M56.6,67.1c-1.3-1.3-3.1-1-4.1,0L42.4,77.1c-0.2-0.8-0.4-1.5-0.6-2.3L55,61.6c1.3-1.3,1.3-3.3,0-4.5
		c-1.4-1.4-3.5-1.1-4.5,0L38.4,69.2c-0.6-0.8-1.4-1.5-1.4-1.5l13.2-13.2c1.2-1.3,1.2-3.3,0-4.5c-1.5-1.5-3.6-1-4.5,0l-14,14
		c-0.7-0.3-1.4-0.6-2.1-0.8L41.7,51c1.2-1.2,1.2-3.3,0-4.5c-1.5-1.5-3.6-0.9-4.5,0L22,61.6c0.1-1.1,0.3-2.2,0.7-3.5
		c2.2-7.6-3.8-10.1-5.7-9.2c-1.4,0.7,0.8,6-3.3,15.1c-3.8,8.5-4.7,15.7,3.5,23.9c6,6,14.7,8,22,0.7l17.4-17.5
		C57.7,70,57.7,68.2,56.6,67.1z"/>
</g>
</svg>
