<?xml version="1.0" encoding="utf-8"?>
<!-- Generator: Adobe Illustrator 19.1.0, SVG Export Plug-In . SVG Version: 6.00 Build 0)  -->
<!DOCTYPE svg PUBLIC "-//W3C//DTD SVG 1.1//EN" "http://www.w3.org/Graphics/SVG/1.1/DTD/svg11.dtd" [
	<!ENTITY ns_extend "http://ns.adobe.com/Extensibility/1.0/">
	<!ENTITY ns_ai "http://ns.adobe.com/AdobeIllustrator/10.0/">
	<!ENTITY ns_graphs "http://ns.adobe.com/Graphs/1.0/">
	<!ENTITY ns_vars "http://ns.adobe.com/Variables/1.0/">
	<!ENTITY ns_imrep "http://ns.adobe.com/ImageReplacement/1.0/">
	<!ENTITY ns_sfw "http://ns.adobe.com/SaveForWeb/1.0/">
	<!ENTITY ns_custom "http://ns.adobe.com/GenericCustomNamespace/1.0/">
	<!ENTITY ns_adobe_xpath "http://ns.adobe.com/XPath/1.0/">
]>
<svg version="1.1" id="Layer_1" xmlns:x="&ns_extend;" xmlns:i="&ns_ai;" xmlns:graph="&ns_graphs;"
	 xmlns="http://www.w3.org/2000/svg" xmlns:xlink="http://www.w3.org/1999/xlink" x="0px" y="0px" viewBox="0 0 95 95"
	 enable-background="new 0 0 95 95" xml:space="preserve">
<metadata>
	<sfw  xmlns="&ns_sfw;">
		<slices></slices>
		<sliceSourceBounds  height="389.1" width="523" x="-75.6" y="-389.4" bottomLeftOrigin="true"></sliceSourceBounds>
	</sfw>
</metadata>
<g>
	<path fill="#369F48" d="M51.2,7.1h-2.1c-1.1,0-2-0.9-2-2V5.1c0-2.6-2.1-4.7-4.7-4.7h-0.1c-2.6,0-4.7,2.1-4.7,4.7v0.1
		c0,1.1-0.9,2-2,2h-2.1c-2.2,0-4,1.8-4,4v0.1c0,2.2,1.8,4,4,4h17.6c2.2,0,4-1.8,4-4v-0.1C55.2,8.9,53.4,7.1,51.2,7.1L51.2,7.1z
		 M42.4,7.1c-1.1,0-2-0.9-2-2s0.9-2,2-2s2,0.9,2,2S43.5,7.1,42.4,7.1L42.4,7.1z M51.4,85.2H17.5c-3,0-5.4-2.4-5.4-5.4V15.2
		c0-3,2.4-5.4,4-5.4h10.9C27,10.3,27,10.7,27,11.2c0,3.7,3,6.7,6.7,6.7h17.6c3.7,0,6.7-3,6.7-6.8c0-0.4,0-0.9-0.1-1.3H66
		c4.3,0,6.7,2.4,6.7,5.4v40.4c-0.4,0-0.9-0.1-1.3-0.1c-1.9,0-3.7,0.3-5.4,0.7V24.6H18.9v53.8h31C50,80.8,50.6,83.1,51.4,85.2
		L51.4,85.2z M71.4,59.6c-9.7,0-17.5,7.8-17.5,17.5c0,9.7,7.8,17.5,17.5,17.5c9.7,0,17.5-7.8,17.5-17.5C88.8,67.4,81,59.6,71.4,59.6
		L71.4,59.6z M82.8,73.5L72,85.6c-0.5,0.6-1.3,0.9-2,0.9c-0.6,0-1.2-0.2-1.7-0.6l-6.7-5.4c-1.2-0.9-1.3-2.6-0.4-3.8
		c0.9-1.2,2.6-1.3,3.8-0.4l4.7,3.8l9.1-10.2c1-1.1,2.7-1.2,3.8-0.2C83.7,70.7,83.8,72.4,82.8,73.5L82.8,73.5z M59.2,47.5H37.7
		c-0.7,0-1.3-0.6-1.3-1.3v-1.3c0-0.7,0.6-1.3,1.3-1.3h21.5c0.7,0,1.3,0.6,1.3,1.3v1.3C60.6,46.9,60,47.5,59.2,47.5L59.2,47.5z
		 M59.2,35.4H37.7c-0.7,0-1.3-0.6-1.3-1.3v-1.3c0-0.7,0.6-1.3,1.3-1.3h21.5c0.7,0,1.3,0.6,1.3,1.3V34C60.6,34.8,60,35.4,59.2,35.4
		L59.2,35.4z M52.5,58.3H37.7c-0.7,0-1.3-0.6-1.3-1.3v-1.3c0-0.7,0.6-1.3,1.3-1.3h14.8c0.7,0,1.3,0.6,1.3,1.3v1.3
		C53.9,57.7,53.3,58.3,52.5,58.3L52.5,58.3z M49.8,70.4H37.7c-0.7,0-1.3-0.6-1.3-1.3v-1.3c0-0.7,0.6-1.3,1.3-1.3h12.1
		c0.7,0,1.3,0.6,1.3,1.3V69C51.2,69.8,50.6,70.4,49.8,70.4L49.8,70.4z M33.8,30.4l-5,5.6c-0.2,0.3-0.6,0.4-0.9,0.4
		c-0.3,0-0.5-0.1-0.8-0.3l-3.1-2.5c-0.5-0.4-0.6-1.2-0.2-1.7c0.4-0.5,1.2-0.6,1.7-0.2l2.2,1.7l4.2-4.7c0.5-0.5,1.2-0.6,1.7-0.1
		C34.2,29.1,34.3,29.9,33.8,30.4L33.8,30.4z M33.8,42.4l-5,5.6c-0.2,0.3-0.6,0.4-0.9,0.4c-0.3,0-0.5-0.1-0.8-0.3l-3.1-2.5
		c-0.5-0.4-0.6-1.2-0.2-1.7c0.4-0.5,1.2-0.6,1.7-0.2l2.2,1.7l4.2-4.7c0.5-0.5,1.2-0.6,1.7-0.1C34.2,41.1,34.3,41.9,33.8,42.4
		L33.8,42.4z M33.8,53.8l-5,5.6c-0.2,0.3-0.6,0.4-0.9,0.4c-0.3,0-0.5-0.1-0.8-0.3l-3.1-2.5c-0.5-0.4-0.6-1.2-0.2-1.7
		c0.4-0.5,1.2-0.6,1.7-0.2l2.2,1.7l4.2-4.7c0.5-0.5,1.2-0.6,1.7-0.1C34.2,52.5,34.3,53.3,33.8,53.8L33.8,53.8z M33.8,65.4l-5,5.6
		c-0.2,0.3-0.6,0.4-0.9,0.4c-0.3,0-0.5-0.1-0.8-0.3l-3.1-2.5c-0.5-0.4-0.6-1.2-0.2-1.7c0.4-0.5,1.2-0.6,1.7-0.2l2.2,1.7l4.2-4.7
		c0.5-0.5,1.2-0.6,1.7-0.1C34.2,64.1,34.3,64.8,33.8,65.4L33.8,65.4z M33.8,65.4"/>
</g>
</svg>
